<?xml version="1.0" encoding="iso-8859-1"?>
<!-- Generator: Adobe Illustrator 19.0.0, SVG Export Plug-In . SVG Version: 6.00 Build 0)  -->
<svg version="1.1" id="Capa_1" xmlns="http://www.w3.org/2000/svg" xmlns:xlink="http://www.w3.org/1999/xlink" x="0px" y="0px"
	 viewBox="0 0 512 512" style="enable-background:new 0 0 512 512;" xml:space="preserve">
<g>
	<g>
		<path d="M257,0C117.104,0,0,113.029,0,255c0,140.742,116.009,257,257,257c142.13,0,255-117.257,255-257
			C512,114.061,397.951,0,257,0z M257,482.2C131.832,482.2,29.8,380.168,29.8,255C29.8,130.935,131.832,29.8,257,29.8
			c124.065,0,225.2,101.135,225.2,225.2C482.2,380.168,381.065,482.2,257,482.2z"/>
	</g>
</g>
<g>
	<g>
		<path d="M373.764,310.124l-53.286-54.961l53.195-53.196c17.546-17.546,17.546-46.094,0-63.639
			c-17.546-17.547-46.096-17.545-63.64,0l-53.196,53.196l-54.961-53.287c-17.553-17.456-46.033-17.425-63.549,0.091
			c-17.546,17.545-17.546,46.094,0,63.639l53.195,53.196l-53.286,54.961c-17.455,17.553-17.425,46.034,0.091,63.549
			c17.516,17.516,45.996,17.546,63.549,0.091l54.961-53.287l53.196,53.196c17.544,17.545,46.094,17.546,63.64,0
			C391.189,356.158,391.219,327.677,373.764,310.124z M352.46,352.46c-5.863,5.863-15.351,5.863-21.214,0l-63.64-63.64
			c-5.794-5.794-15.165-5.867-21.048-0.163l-65.64,63.64c-0.056,0.054-0.11,0.108-0.165,0.163c-5.863,5.863-15.351,5.863-21.214,0
			c-5.863-5.864-5.862-15.35,0-21.213c0.055-0.055,0.109-0.11,0.163-0.165l63.64-65.64c5.703-5.883,5.631-15.254-0.163-21.048
			l-63.64-63.64c-5.863-5.864-5.863-15.35,0-21.213c5.863-5.863,15.351-5.863,21.214,0c0.055,0.055,0.109,0.109,0.165,0.163
			l65.64,63.64c5.885,5.704,15.256,5.631,21.048-0.163l63.64-63.64c5.863-5.863,15.351-5.863,21.214,0
			c5.863,5.864,5.862,15.349,0,21.213l-63.64,63.64c-5.794,5.794-5.866,15.165-0.163,21.048l63.64,65.64
			c0.054,0.055,0.108,0.11,0.163,0.165C358.323,337.111,358.323,346.597,352.46,352.46z"/>
	</g>
</g>
<g>
</g>
<g>
</g>
<g>
</g>
<g>
</g>
<g>
</g>
<g>
</g>
<g>
</g>
<g>
</g>
<g>
</g>
<g>
</g>
<g>
</g>
<g>
</g>
<g>
</g>
<g>
</g>
<g>
</g>
</svg>
