<?xml version="1.0" encoding="iso-8859-1"?>
<!-- Generator: Adobe Illustrator 18.1.1, SVG Export Plug-In . SVG Version: 6.00 Build 0)  -->
<svg version="1.1" id="Capa_1" xmlns="http://www.w3.org/2000/svg" xmlns:xlink="http://www.w3.org/1999/xlink" x="0px" y="0px"
	 viewBox="0 0 28 28" style="enable-background:new 0 0 28 28;" xml:space="preserve">
<g>
	<g>
		<rect x="8" y="2" style="fill:#010002;" width="20" height="2"/>
		<rect x="8" y="12" style="fill:#010002;" width="20" height="2"/>
		<rect x="8" y="22" style="fill:#010002;" width="20" height="2"/>
		<polygon style="fill:#010002;" points="3,2 3.001,1 1.001,1 1.001,2 2,2 2,7 1,7 1,8 4,8 4,7 3,7 		"/>
		<rect x="2" y="14" style="fill:#010002;" width="1" height="1"/>
		<rect x="1" y="15" style="fill:#010002;" width="1" height="1"/>
		<polygon style="fill:#010002;" points="0,18 4,18 4,17 1,17 1,16 0,16 		"/>
		<rect x="3" y="12" style="fill:#010002;" width="1" height="2"/>
		<rect x="1" y="11" style="fill:#010002;" width="2" height="1"/>
		<rect y="12" style="fill:#010002;" width="1" height="1"/>
		<rect x="3" y="24" style="fill:#010002;" width="1" height="2"/>
		<rect x="3" y="21" style="fill:#010002;" width="1" height="2"/>
		<rect y="20" style="fill:#010002;" width="3" height="1"/>
		<rect y="26" style="fill:#010002;" width="3" height="1"/>
		<rect x="1" y="23" style="fill:#010002;" width="2" height="1"/>
	</g>
</g>
<g>
</g>
<g>
</g>
<g>
</g>
<g>
</g>
<g>
</g>
<g>
</g>
<g>
</g>
<g>
</g>
<g>
</g>
<g>
</g>
<g>
</g>
<g>
</g>
<g>
</g>
<g>
</g>
<g>
</g>
</svg>
