<?xml version="1.0" encoding="iso-8859-1"?>
<!-- Generator: Adobe Illustrator 19.0.0, SVG Export Plug-In . SVG Version: 6.00 Build 0)  -->
<svg version="1.1" id="Capa_1" xmlns="http://www.w3.org/2000/svg" xmlns:xlink="http://www.w3.org/1999/xlink" x="0px" y="0px"
	 viewBox="0 0 512.002 512.002" style="enable-background:new 0 0 512.002 512.002;" xml:space="preserve">
<g>
	<g>
		<path d="M356.25,20.098C247.585-25.898,116.362,8.367,45.971,109.443L24.06,93.011c-9.879-7.408-23.994-0.324-23.994,11.997
			V254.97c0,11.161,11.774,18.378,21.702,13.414l119.969-59.985c9.966-4.984,11.191-18.736,2.291-25.41l-25.607-19.206
			c49.115-74.548,139.433-87.603,202.777-60.824c61.209,25.915,100.759,85.584,100.759,152.012
			c0,66.616-40.497,128.508-100.769,154.01c-61.984,26.22-135.459,12.006-182.832-35.366
			c-15.148-15.149-27.048-32.794-35.361-52.427c-9.646-22.865-36.02-33.604-58.942-23.934c-22.924,9.68-33.617,36.074-23.931,58.939
			c12.81,30.345,31.184,57.611,54.615,81.041c73.682,73.683,186.176,94.975,281.484,54.615
			c91.51-38.629,155.713-131.159,155.713-236.877C511.935,152.24,450.822,60.048,356.25,20.098z M344.542,464.221
			c-84.174,35.646-184.093,16.305-248.595-48.198c-20.681-20.681-36.894-44.736-48.199-71.516
			c-3.226-7.614,0.34-16.404,7.971-19.626c7.569-3.194,16.413,0.3,19.652,7.978c9.832,23.223,23.889,44.069,41.779,61.959
			c55.919,55.919,142.613,72.707,215.725,41.781c70.828-29.968,119.076-101.595,119.076-181.633
			c0-78.5-46.733-149.009-119.066-179.635c-87.963-37.182-196.459-6.18-247.423,84.971c-3.664,6.555-1.915,14.809,4.092,19.315
			l17.069,12.802l-76.564,38.282v-95.706l10.747,8.06c7.112,5.334,17.257,3.332,21.833-4.242
			C120.361,43.287,241.557,4.12,344.559,47.718c0.004,0.001,0.007,0.003,0.011,0.005c83.452,35.245,137.373,116.594,137.373,207.247
			C481.943,345.437,426.733,429.526,344.542,464.221z"/>
	</g>
</g>
<g>
</g>
<g>
</g>
<g>
</g>
<g>
</g>
<g>
</g>
<g>
</g>
<g>
</g>
<g>
</g>
<g>
</g>
<g>
</g>
<g>
</g>
<g>
</g>
<g>
</g>
<g>
</g>
<g>
</g>
</svg>
